<?xml version="1.0" encoding="UTF-8"?>
<!DOCTYPE svg PUBLIC "-//W3C//DTD SVG 1.1//EN" "http://www.w3.org/Graphics/SVG/1.1/DTD/svg11.dtd">
<!-- Creator: CorelDRAW -->
<svg xmlns="http://www.w3.org/2000/svg" xml:space="preserve" width="16.9332mm" height="16.9332mm" style="shape-rendering:geometricPrecision; text-rendering:geometricPrecision; image-rendering:optimizeQuality; fill-rule:evenodd; clip-rule:evenodd"
viewBox="0 0 1.74359 1.74359"
 xmlns:xlink="http://www.w3.org/1999/xlink">
 <defs>
  <style type="text/css">
    .fil4 {fill:#EBECEC}
    .fil0 {fill:#010101;fill-rule:nonzero}
    .fil2 {fill:#010101;fill-rule:nonzero;fill-opacity:0.450980}
    .fil1 {fill:#010101;fill-rule:nonzero;fill-opacity:0.600000}
    .fil3 {fill:#010101;fill-rule:nonzero;fill-opacity:0.800000}
  </style>
 </defs>
<symbol id="Fm4-477-0" viewBox="23.7575 -18.1559 1.34399 1.89279">
 <polygon class="fil0" points="23.7575,-17.3623 23.7575,-16.2631 25.1015,-18.1559 "/>
</symbol>
<symbol id="Fm0-469-0" viewBox="22.4143 -19.0211 2.68639 1.40447">
 <polygon class="fil0" points="23.7575,-19.0211 22.4143,-18.4106 23.7575,-17.6166 25.1007,-18.4106 "/>
</symbol>
<symbol id="Fm1-471-0" viewBox="22.4143 -20.6393 1.3432 3.02265">
 <polygon class="fil0" points="22.4143,-18.4106 23.7575,-17.6166 23.7575,-19.0211 23.7575,-20.6393 "/>
</symbol>
<symbol id="Fm2-473-0" viewBox="23.7575 -20.6393 1.3432 3.02265">
 <polygon class="fil0" points="23.7575,-20.6393 23.7575,-19.0211 23.7575,-17.6166 25.1007,-18.4106 "/>
</symbol>
<symbol id="Fm3-475-0" viewBox="22.4143 -18.1559 1.3432 1.89279">
 <polygon class="fil0" points="22.4143,-18.1559 23.7575,-16.2631 23.7575,-17.3623 "/>
</symbol>
 <g id="__x0023_Layer_x0020_1">
  <metadata id="CorelCorpID_0Corel-Layer"/>
  <g id="_394753016">
   <g>
    <g>
     <polygon id="_393258960" class="fil1" points="0.871672,0.698129 0.462361,0.884173 0.871672,1.12611 1.28098,0.884173 "/>
    </g>
    <g>
     <polygon id="_393259440" class="fil2" points="0.462371,0.884162 0.871672,1.12611 0.871672,0.698118 0.871672,0.205021 "/>
    </g>
    <g>
     <polygon id="_393258792" class="fil3" points="0.871672,0.205021 0.871672,0.698118 0.871672,1.12611 1.28098,0.884162 "/>
    </g>
    <g>
     <polygon id="_392887456" class="fil2" points="0.462371,0.96178 0.871672,1.53857 0.871672,1.20359 "/>
    </g>
    <g>
     <polygon id="_392887672" class="fil3" points="0.871672,1.2036 0.871672,1.53857 1.28122,0.96178 "/>
    </g>
   </g>
   <path id="_392744264" class="fil4" d="M0.871816 0c0.481441,0 0.871775,0.390334 0.871775,0.871816 0,0.481441 -0.390334,0.871775 -0.871775,0.871775 -0.481482,0 -0.871816,-0.390334 -0.871816,-0.871775 0,-0.481482 0.390334,-0.871816 0.871816,-0.871816zm0 0.124252c0.412833,0 0.747523,0.33469 0.747523,0.747564 0,0.412833 -0.33469,0.747523 -0.747523,0.747523 -0.412874,0 -0.747564,-0.33469 -0.747564,-0.747523 0,-0.412874 0.33469,-0.747564 0.747564,-0.747564z"/>
  </g>
 </g>
</svg>
