<svg width="55" height="55" viewBox="0 0 55 55" fill="none" xmlns="http://www.w3.org/2000/svg">
<rect width="55" height="55" rx="15" fill="#FFE3E8"/>
<path d="M23.125 31.875L31.875 23.125" stroke="#FF006B" stroke-width="2" stroke-linecap="round" stroke-linejoin="round"/>
<path d="M23.8542 24.5833C24.2569 24.5833 24.5833 24.2569 24.5833 23.8542C24.5833 23.4515 24.2569 23.125 23.8542 23.125C23.4515 23.125 23.125 23.4515 23.125 23.8542C23.125 24.2569 23.4515 24.5833 23.8542 24.5833Z" stroke="#FF006B" stroke-width="2" stroke-linecap="round" stroke-linejoin="round"/>
<path d="M17.2916 20.4999C17.2916 19.649 17.6296 18.833 18.2313 18.2313C18.833 17.6296 19.649 17.2916 20.4999 17.2916H21.9583C22.8054 17.2911 23.618 16.9556 24.2187 16.3583L25.2395 15.3374C25.5377 15.0376 25.8922 14.7997 26.2826 14.6373C26.673 14.4749 27.0917 14.3914 27.5145 14.3914C27.9374 14.3914 28.356 14.4749 28.7465 14.6373C29.1369 14.7997 29.4914 15.0376 29.7895 15.3374L30.8104 16.3583C31.4111 16.9556 32.2236 17.2911 33.0708 17.2916H34.5291C35.38 17.2916 36.1961 17.6296 36.7977 18.2313C37.3994 18.833 37.7374 19.649 37.7374 20.4999V21.9583C37.7379 22.8054 38.0734 23.618 38.6708 24.2187L39.6916 25.2395C39.9914 25.5377 40.2294 25.8922 40.3917 26.2826C40.5541 26.673 40.6377 27.0917 40.6377 27.5145C40.6377 27.9374 40.5541 28.356 40.3917 28.7465C40.2294 29.1369 39.9914 29.4914 39.6916 29.7895L38.6708 30.8104C38.0734 31.4111 37.7379 32.2236 37.7374 33.0708V34.5291C37.7374 35.38 37.3994 36.1961 36.7977 36.7977C36.1961 37.3994 35.38 37.7374 34.5291 37.7374H33.0708C32.2236 37.7379 31.4111 38.0734 30.8104 38.6708L29.7895 39.6916C29.4914 39.9914 29.1369 40.2294 28.7465 40.3917C28.356 40.5541 27.9374 40.6377 27.5145 40.6377C27.0917 40.6377 26.673 40.5541 26.2826 40.3917C25.8922 40.2294 25.5377 39.9914 25.2395 39.6916L24.2187 38.6708C23.618 38.0734 22.8054 37.7379 21.9583 37.7374H20.4999C19.649 37.7374 18.833 37.3994 18.2313 36.7977C17.6296 36.1961 17.2916 35.38 17.2916 34.5291V33.0708C17.2911 32.2236 16.9556 31.4111 16.3583 30.8104L15.3374 29.7895C15.0376 29.4914 14.7997 29.1369 14.6373 28.7465C14.4749 28.356 14.3914 27.9374 14.3914 27.5145C14.3914 27.0917 14.4749 26.673 14.6373 26.2826C14.7997 25.8922 15.0376 25.5377 15.3374 25.2395L16.3583 24.2187C16.9556 23.618 17.2911 22.8054 17.2916 21.9583V20.4999" stroke="#FF006B" stroke-width="2" stroke-linecap="round" stroke-linejoin="round"/>
<path d="M31.1458 31.875C31.5485 31.875 31.875 31.5486 31.875 31.1459C31.875 30.7431 31.5485 30.4167 31.1458 30.4167C30.7431 30.4167 30.4166 30.7431 30.4166 31.1459C30.4166 31.5486 30.7431 31.875 31.1458 31.875Z" stroke="#FF006B" stroke-width="2" stroke-linecap="round" stroke-linejoin="round"/>
</svg>
