<svg width="55" height="55" viewBox="0 0 55 55" fill="none" xmlns="http://www.w3.org/2000/svg">
<rect width="55" height="55" rx="15" fill="#C8FFDE"/>
<path d="M27.5002 14.375C30.9066 17.3888 35.3525 18.9579 39.896 18.75C40.5575 21.0002 40.7599 23.3605 40.4912 25.6905C40.2225 28.0205 39.4881 30.2727 38.3318 32.3133C37.1755 34.3539 35.6207 36.1412 33.76 37.569C31.8993 38.9969 29.7705 40.0361 27.5002 40.625C25.2298 40.0361 23.1011 38.9969 21.2403 37.569C19.3796 36.1412 17.8249 34.3539 16.6685 32.3133C15.5122 30.2727 14.7779 28.0205 14.5092 25.6905C14.2404 23.3605 14.4428 21.0002 15.1043 18.75C19.6478 18.9579 24.0937 17.3888 27.5002 14.375" stroke="#27CE6A" stroke-width="2" stroke-linecap="round" stroke-linejoin="round"/>
<path d="M23.125 27.5L26.0417 30.4167L31.875 24.5833" stroke="#27CE6A" stroke-width="2" stroke-linecap="round" stroke-linejoin="round"/>
</svg>
