<svg width="20" height="17" viewBox="0 0 20 17" fill="none" xmlns="http://www.w3.org/2000/svg">
 <defs>
  <style type="text/css">
   path {fill:#396CF5}
  </style>
 </defs>
 <mask id="path-1-inside-1_4687_7255" fill="white">
  <path d="M7.84753 11.1508L7.5167 15.8041C7.99003 15.8041 8.19503 15.6008 8.44086 15.3566L10.66 13.2358L15.2584 16.6033C16.1017 17.0733 16.6959 16.8258 16.9234 15.8274L19.9417 1.6841L19.9425 1.68326C20.21 0.436598 19.4917 -0.0509023 18.67 0.254931L0.92836 7.04743C-0.282474 7.51743 -0.264141 8.19243 0.722526 8.49826L5.25836 9.9091L15.7942 3.3166C16.29 2.98826 16.7409 3.16993 16.37 3.49826L7.84753 11.1508Z"></path>
 </mask>
 <path d="M7.84753 11.1508L7.5167 15.8041C7.99003 15.8041 8.19503 15.6008 8.44086 15.3566L10.66 13.2358L15.2584 16.6033C16.1017 17.0733 16.6959 16.8258 16.9234 15.8274L19.9417 1.6841L19.9425 1.68326C20.21 0.436598 19.4917 -0.0509023 18.67 0.254931L0.92836 7.04743C-0.282474 7.51743 -0.264141 8.19243 0.722526 8.49826L5.25836 9.9091L15.7942 3.3166C16.29 2.98826 16.7409 3.16993 16.37 3.49826L7.84753 11.1508Z" fill="white"></path>
 <path d="M7.84753 11.1508L-6.40545 -4.72261L-12.8207 1.03772L-13.4321 9.63787L7.84753 11.1508ZM7.5167 15.8041L-13.7629 14.2912L-15.3872 37.1374H7.5167V15.8041ZM8.44086 15.3566L-6.29852 -0.0661721L-6.44698 0.0757142L-6.59269 0.220432L8.44086 15.3566ZM10.66 13.2358L23.2646 -3.97577L8.84322 -14.537L-4.07935 -2.18701L10.66 13.2358ZM15.2584 16.6033L2.65383 33.8148L3.71935 34.5951L4.87297 35.238L15.2584 16.6033ZM16.9234 15.8274L37.7235 20.5674L37.7562 20.4239L37.7869 20.2799L16.9234 15.8274ZM19.9417 1.6841L4.85136 -13.3955L0.394221 -8.93513L-0.921823 -2.76839L19.9417 1.6841ZM19.9425 1.68326L35.0329 16.7628L39.4809 12.3116L40.8011 6.15893L19.9425 1.68326ZM18.67 0.254931L11.2283 -19.7384L11.1352 -19.7037L11.0424 -19.6682L18.67 0.254931ZM0.92836 7.04743L-6.69931 -12.8757L-6.74533 -12.858L-6.79128 -12.8402L0.92836 7.04743ZM0.722526 8.49826L7.05866 -11.8724L7.04867 -11.8755L7.03867 -11.8786L0.722526 8.49826ZM5.25836 9.9091L-1.07777 30.2798L8.27296 33.1882L16.5744 27.9939L5.25836 9.9091ZM15.7942 3.3166L27.1102 21.4014L27.3433 21.2555L27.5726 21.1037L15.7942 3.3166ZM16.37 3.49826L2.22815 -12.4742L2.17243 -12.4248L2.11706 -12.3751L16.37 3.49826ZM-13.4321 9.63787L-13.7629 14.2912L28.7963 17.317L29.1271 12.6637L-13.4321 9.63787ZM7.5167 37.1374C11.1468 37.1374 15.0491 36.2692 18.7173 34.1549C20.3315 33.2245 21.53 32.263 22.2868 31.6025C22.6612 31.2757 22.9581 30.9952 23.1433 30.8169C23.3149 30.6518 23.4645 30.5026 23.4744 30.4928L-6.59269 0.220432C-7.06165 0.686212 -5.25956 -1.27186 -2.58916 -2.81104C0.796838 -4.76267 4.35996 -5.52924 7.5167 -5.52924V37.1374ZM23.1802 30.7794L25.3994 28.6585L-4.07935 -2.18701L-6.29852 -0.0661721L23.1802 30.7794ZM-1.94451 30.4473L2.65383 33.8148L27.8629 -0.608265L23.2646 -3.97577L-1.94451 30.4473ZM4.87297 35.238C7.79061 36.8641 15.8278 40.4096 25.1242 36.1986C34.3397 32.0243 37.0009 23.7381 37.7235 20.5674L-3.87674 11.0875C-3.3817 8.91512 -1.13134 1.25182 7.51938 -2.66669C16.251 -6.62185 23.5694 -3.18754 25.6437 -2.03151L4.87297 35.238ZM37.7869 20.2799L40.8052 6.13659L-0.921823 -2.76839L-3.94016 11.3749L37.7869 20.2799ZM35.032 16.7636L35.0329 16.7628L4.85219 -13.3963L4.85136 -13.3955L35.032 16.7636ZM40.8011 6.15893C41.7227 1.86363 42.2511 -7.53273 34.5073 -14.9848C26.508 -22.6828 16.5935 -21.7354 11.2283 -19.7384L26.1118 20.2482C21.5682 21.9394 12.4238 22.9777 4.9221 15.7586C-2.324 8.78551 -1.57018 0.256233 -0.916031 -2.7924L40.8011 6.15893ZM11.0424 -19.6682L-6.69931 -12.8757L8.55603 26.9705L26.2977 20.178L11.0424 -19.6682ZM-6.79128 -12.8402C-8.50692 -12.1743 -11.1713 -10.9297 -13.8108 -8.61737C-16.3306 -6.41001 -20.5818 -1.60927 -21.2495 5.96007C-21.9789 14.2305 -18.006 20.4221 -14.4007 23.7925C-11.107 26.8718 -7.63025 28.2439 -5.59362 28.8751L7.03867 -11.8786C8.58197 -11.4003 11.6864 -10.2272 14.7371 -7.37526C18.0992 -4.23211 21.9582 1.7041 21.2522 9.70875C20.608 17.0124 16.5176 21.5371 14.3041 23.4762C11.9709 25.5201 9.75822 26.5041 8.64799 26.9351L-6.79128 -12.8402ZM-5.6136 28.8689L-1.07777 30.2798L11.5945 -10.4616L7.05866 -11.8724L-5.6136 28.8689ZM16.5744 27.9939L27.1102 21.4014L4.47817 -14.7682L-6.05767 -8.17566L16.5744 27.9939ZM27.5726 21.1037C25.7497 22.3108 23.4984 23.3697 20.85 23.9684C18.6034 24.4764 14.3001 25.0454 9.28988 23.2723C6.6517 22.3386 3 20.4391 -0.06027 16.6814C-3.3604 12.6291 -4.9991 7.57034 -4.8127 2.50127C-4.48816 -6.32467 0.943298 -11.3366 2.22815 -12.4742L30.5119 19.4707C31.9822 18.1689 37.4963 13.0112 37.8252 4.06912C38.2755 -8.1776 29.3369 -14.8929 23.5243 -16.9499C18.3858 -18.7684 13.9 -18.2038 11.441 -17.6478C8.58021 -17.001 6.08659 -15.8417 4.01584 -14.4705L27.5726 21.1037ZM2.11706 -12.3751L-6.40545 -4.72261L22.1005 27.0241L30.623 19.3716L2.11706 -12.3751Z" fill="white" mask="url(#path-1-inside-1_4687_7255)"></path>
</svg>